<svg xmlns="http://www.w3.org/2000/svg" width="1100" height="620" viewBox="0 0 1100 620"><rect width="1100" height="620" fill="#f7f9f8"/><text x="45" y="50" font-family="Arial" font-size="30" font-weight="700" fill="#1f2b27">Micro centro de datos - Sorapa</text><defs><marker id="a" markerWidth="10" markerHeight="10" refX="8" refY="5" orient="auto"><path d="M1 1 L9 5 L1 9Z" fill="#47786f"/></marker></defs><g font-family="Arial" fill="#25302c"><rect x="80" y="150" width="230" height="220" rx="12" fill="#eef5f2" stroke="#2f6f66" stroke-width="3"/><text x="140" y="185" font-size="20" font-weight="700">Rack mural</text><rect x="115" y="215" width="160" height="38" fill="#fff" stroke="#65756f"/><text x="155" y="240" font-size="14">Router</text><rect x="115" y="265" width="160" height="38" fill="#fff" stroke="#65756f"/><text x="155" y="290" font-size="14">Switch</text><rect x="115" y="315" width="160" height="38" fill="#fff" stroke="#65756f"/><text x="145" y="340" font-size="14">Patch panel</text><rect x="430" y="175" width="210" height="110" rx="12" fill="#e8e4f2" stroke="#6d5a94" stroke-width="3"/><text x="475" y="220" font-size="20" font-weight="700">Servidor</text><text x="455" y="248" font-size="14">PC administrativa</text><rect x="720" y="185" width="150" height="90" rx="10" fill="#e8eaf0" stroke="#6e7482" stroke-width="3"/><text x="770" y="225" font-size="18" font-weight="700">UPS</text><rect x="460" y="390" width="150" height="80" rx="10" fill="#fff" stroke="#6d5a94" stroke-width="3"/><text x="485" y="435" font-size="16">Disco backup</text></g><g stroke="#47786f" stroke-width="4" fill="none" marker-end="url(#a)"><path d="M310 285H430"/><path d="M535 285V390"/></g><path d="M795 275C740 320 620 315 535 285" stroke="#6e7482" stroke-width="3" fill="none" stroke-dasharray="7 7"/></svg>
