<svg xmlns="http://www.w3.org/2000/svg" width="1150" height="620" viewBox="0 0 1150 620"><rect width="1150" height="620" fill="#f7f9f8"/><text x="45" y="50" font-family="Arial" font-size="30" font-weight="700" fill="#1f2b27">Controles de Acceso - ACL</text><defs><marker id="a" markerWidth="10" markerHeight="10" refX="8" refY="5" orient="auto"><path d="M1 1 L9 5 L1 9Z" fill="#47786f"/></marker></defs><rect x="455" y="120" width="240" height="95" rx="12" fill="#dceee9" stroke="#2f6f66" stroke-width="3"/><text x="510" y="158" font-family="Arial" font-size="19" font-weight="700" fill="#25302c">Router/Firewall</text><text x="492" y="184" font-family="Arial" font-size="14" fill="#3f4d48">filtra tráfico entre VLAN</text><g font-family="Arial" fill="#25302c"><rect x="75" y="295" width="180" height="70" rx="10" fill="#dceee9" stroke="#2f6f66" stroke-width="2"/><text x="120" y="335">Admin</text><rect x="290" y="295" width="180" height="70" rx="10" fill="#e7f0dc" stroke="#6b8d4f" stroke-width="2"/><text x="335" y="335">Docentes</text><rect x="505" y="295" width="180" height="70" rx="10" fill="#eef0dc" stroke="#9a8a3a" stroke-width="2"/><text x="548" y="335">Estudiantes</text><rect x="720" y="295" width="180" height="70" rx="10" fill="#e8e4f2" stroke="#6d5a94" stroke-width="2"/><text x="765" y="335">Servidor</text><rect x="935" y="295" width="160" height="70" rx="10" fill="#f2e7e2" stroke="#a56f59" stroke-width="2"/><text x="975" y="335">Invitados</text></g><g stroke="#47786f" stroke-width="4" fill="none" marker-end="url(#a)"><path d="M165 295C210 230 430 190 455 170"/><path d="M380 295C420 245 470 220 520 215"/><path d="M575 215C620 245 770 260 810 295"/></g><g stroke="#b46a5a" stroke-width="4" fill="none" stroke-dasharray="8 7"><path d="M595 365C625 430 770 430 810 365"/><path d="M1015 365C940 450 760 445 595 365"/></g><text x="120" y="500" font-family="Arial" font-size="16" fill="#3f4d48">Permitir: Administración y Docentes autorizados hacia servidor. Denegar: Estudiantes/Invitados hacia recursos internos.</text></svg>
