<svg xmlns="http://www.w3.org/2000/svg" width="1200" height="560" viewBox="0 0 1200 560"><rect width="1200" height="560" fill="#f7f9f8"/><text x="45" y="50" font-family="Arial" font-size="30" font-weight="700" fill="#1f2b27">Direccionamiento IP implementado</text><rect x="60" y="95" width="1080" height="55" rx="8" fill="#2f6f66"/><g font-family="Arial" font-size="16"><text x="90" y="130" fill="#fff" font-weight="700">VLAN</text><text x="210" y="130" fill="#fff" font-weight="700">Segmento</text><text x="430" y="130" fill="#fff" font-weight="700">Subred</text><text x="650" y="130" fill="#fff" font-weight="700">Gateway</text><text x="835" y="130" fill="#fff" font-weight="700">DHCP</text><text x="1030" y="130" fill="#fff" font-weight="700">Uso</text><g fill="#25302c"><rect x="60" y="150" width="1080" height="65" fill="#fff"/><text x="95" y="190">10</text><text x="210" y="190">Administración</text><text x="430" y="190">192.168.10.0/24</text><text x="650" y="190">192.168.10.1</text><text x="835" y="190">.100-.199</text><text x="1030" y="190">Dirección</text><rect x="60" y="215" width="1080" height="65" fill="#eef5f2"/><text x="95" y="255">20</text><text x="210" y="255">Docentes</text><text x="430" y="255">192.168.20.0/24</text><text x="650" y="255">192.168.20.1</text><text x="835" y="255">.100-.199</text><text x="1030" y="255">Wi-Fi</text><rect x="60" y="280" width="1080" height="65" fill="#fff"/><text x="95" y="320">30</text><text x="210" y="320">Estudiantes</text><text x="430" y="320">192.168.30.0/24</text><text x="650" y="320">192.168.30.1</text><text x="835" y="320">.100-.220</text><text x="1030" y="320">Aula</text><rect x="60" y="345" width="1080" height="65" fill="#eef5f2"/><text x="95" y="385">40</text><text x="210" y="385">Servidor</text><text x="430" y="385">192.168.40.0/24</text><text x="650" y="385">192.168.40.1</text><text x="835" y="385">Fijo</text><text x="1030" y="385">Backup</text><rect x="60" y="410" width="1080" height="65" fill="#fff"/><text x="95" y="450">50</text><text x="210" y="450">Invitados</text><text x="430" y="450">192.168.50.0/24</text><text x="650" y="450">192.168.50.1</text><text x="835" y="450">.100-.200</text><text x="1030" y="450">Internet</text></g></g></svg>
