<svg xmlns="http://www.w3.org/2000/svg" width="1200" height="680" viewBox="0 0 1200 680"><rect width="1200" height="680" fill="#f7f9f8"/><text x="45" y="50" font-family="Arial" font-size="30" font-weight="700" fill="#1f2b27">Topología implementada - I.E.S. Agropecuario Sorapa</text><defs><marker id="a" markerWidth="10" markerHeight="10" refX="8" refY="5" orient="auto"><path d="M1 1 L9 5 L1 9Z" fill="#47786f"/></marker></defs><g font-family="Arial" fill="#25302c"><rect x="60" y="120" width="150" height="70" rx="10" fill="#fff" stroke="#40514b" stroke-width="3"/><text x="105" y="162" font-size="18" font-weight="700">ISP</text><rect x="280" y="120" width="170" height="70" rx="10" fill="#dceee9" stroke="#2f6f66" stroke-width="3"/><text x="333" y="150" font-size="18" font-weight="700">Router</text><text x="305" y="172" font-size="13">NAT/DHCP/Gateway</text><rect x="520" y="120" width="180" height="70" rx="10" fill="#dceee9" stroke="#2f6f66" stroke-width="3"/><text x="566" y="150" font-size="18" font-weight="700">Switch</text><text x="545" y="172" font-size="13">VLAN + trunk</text><rect x="770" y="120" width="180" height="70" rx="10" fill="#fff" stroke="#40514b" stroke-width="3"/><text x="805" y="150" font-size="18" font-weight="700">Patch Panel</text><text x="818" y="172" font-size="13">Cat 6</text><rect x="1000" y="100" width="140" height="95" rx="10" fill="#e8eaf0" stroke="#6e7482" stroke-width="3"/><text x="1050" y="140" font-size="18" font-weight="700">UPS</text><text x="1028" y="164" font-size="13">energía crítica</text></g><g stroke="#47786f" stroke-width="4" fill="none" marker-end="url(#a)"><path d="M210 155H280"/><path d="M450 155H520"/><path d="M700 155H770"/></g><g font-family="Arial" fill="#25302c"><rect x="70" y="360" width="160" height="70" rx="10" fill="#eef5f2" stroke="#65756f" stroke-width="2"/><text x="105" y="402" font-size="16" font-weight="700">Dirección</text><rect x="270" y="360" width="160" height="70" rx="10" fill="#eef5f2" stroke="#65756f" stroke-width="2"/><text x="310" y="402" font-size="16" font-weight="700">Secretaría</text><rect x="470" y="360" width="180" height="70" rx="10" fill="#eef5f2" stroke="#65756f" stroke-width="2"/><text x="500" y="402" font-size="16" font-weight="700">Aula innovación</text><rect x="700" y="360" width="160" height="70" rx="10" fill="#f4f0df" stroke="#9b8b3f" stroke-width="2"/><text x="735" y="402" font-size="16" font-weight="700">AP Docentes</text><rect x="900" y="360" width="190" height="70" rx="10" fill="#f4f0df" stroke="#9b8b3f" stroke-width="2"/><text x="925" y="402" font-size="16" font-weight="700">AP Estudiantes</text><rect x="505" y="520" width="190" height="70" rx="10" fill="#e8e4f2" stroke="#6d5a94" stroke-width="2"/><text x="548" y="562" font-size="16" font-weight="700">Servidor local</text></g><g stroke="#6b7d75" stroke-width="3" fill="none" marker-end="url(#a)"><path d="M860 190C840 290 150 280 150 360"/><path d="M860 190C850 300 350 290 350 360"/><path d="M860 190C850 315 560 305 560 360"/><path d="M860 190C850 320 780 325 780 360"/><path d="M860 190C900 305 995 310 995 360"/><path d="M610 190V520"/></g></svg>
