<svg xmlns="http://www.w3.org/2000/svg" width="1050" height="560" viewBox="0 0 1050 560"><rect width="1050" height="560" fill="#f7f9f8"/><text x="45" y="50" font-family="Arial" font-size="30" font-weight="700" fill="#1f2b27">Firewall básico del router</text><defs><marker id="a" markerWidth="10" markerHeight="10" refX="8" refY="5" orient="auto"><path d="M1 1 L9 5 L1 9Z" fill="#47786f"/></marker></defs><rect x="420" y="120" width="220" height="95" rx="12" fill="#dceee9" stroke="#2f6f66" stroke-width="3"/><text x="475" y="158" font-family="Arial" font-size="20" font-weight="700" fill="#25302c">Router</text><text x="450" y="185" font-family="Arial" font-size="14" fill="#3f4d48">firewall + NAT</text><g font-family="Arial" fill="#25302c"><rect x="80" y="320" width="170" height="70" rx="10" fill="#fff" stroke="#65756f" stroke-width="2"/><text x="110" y="360">Administración</text><rect x="320" y="320" width="150" height="70" rx="10" fill="#fff" stroke="#65756f" stroke-width="2"/><text x="365" y="360">Docentes</text><rect x="570" y="320" width="150" height="70" rx="10" fill="#fff" stroke="#65756f" stroke-width="2"/><text x="607" y="360">Servidor</text><rect x="800" y="320" width="150" height="70" rx="10" fill="#fff" stroke="#a56f59" stroke-width="2"/><text x="838" y="360">Invitados</text></g><g stroke="#47786f" stroke-width="4" fill="none" marker-end="url(#a)"><path d="M165 320C230 245 350 190 420 170"/><path d="M395 320C430 255 470 220 500 215"/><path d="M640 215C650 255 645 290 645 320"/></g><path d="M875 320C810 240 700 205 640 180" stroke="#b46a5a" stroke-width="4" fill="none" stroke-dasharray="8 7"/><text x="650" y="470" font-family="Arial" font-size="15" fill="#3f4d48">Invitados y estudiantes no acceden a recursos internos.</text></svg>
