<svg xmlns="http://www.w3.org/2000/svg" width="1000" height="420" viewBox="0 0 1000 420"><rect width="1000" height="420" fill="#ffffff"/><text x="40" y="45" font-family="Arial" font-size="28" font-weight="700" fill="#1f2937">Topologia LAN YatiqApp</text><g font-family="Arial" font-size="15" fill="#111827"><rect x="420" y="70" width="160" height="70" rx="8" fill="#e0f2fe" stroke="#0284c7"/><text x="470" y="112">Switch</text><rect x="95" y="180" width="140" height="60" rx="8" fill="#fef9c3" stroke="#ca8a04"/><text x="130" y="216">Router</text><rect x="300" y="180" width="150" height="60" rx="8" fill="#dcfce7" stroke="#16a34a"/><text x="330" y="216">Patch Panel</text><rect x="545" y="180" width="150" height="60" rx="8" fill="#fae8ff" stroke="#c026d3"/><text x="570" y="216">Servidor</text><rect x="755" y="120" width="150" height="60" rx="8" fill="#ede9fe" stroke="#7c3aed"/><text x="800" y="156">AP 1</text><rect x="755" y="260" width="150" height="60" rx="8" fill="#ede9fe" stroke="#7c3aed"/><text x="800" y="296">AP 2/3</text></g><g stroke="#374151" stroke-width="3" fill="none"><path d="M235 210H300"/><path d="M450 210H545"/><path d="M500 140V180"/><path d="M580 105C675 105 675 150 755 150"/><path d="M580 105C675 105 675 290 755 290"/></g></svg>
