<svg xmlns="http://www.w3.org/2000/svg" width="1200" height="720" viewBox="0 0 1200 720" role="img" aria-label="Diagnostico Organizacional">
<rect width="1200" height="720" fill="#f8fafc"/>
<rect x="32" y="28" width="1136" height="664" rx="18" fill="#ffffff" stroke="#cbd5e1" stroke-width="2"/>
<text x="600" y="76" text-anchor="middle" font-family="Segoe UI, Arial, sans-serif" font-size="30" font-weight="700" fill="#1e293b">Diagnostico Organizacional</text>
<text x="600" y="110" text-anchor="middle" font-family="Segoe UI, Arial, sans-serif" font-size="15" fill="#475569">Arquitectura offline, IA On-Device, datos locales y gestion academica controlada</text>
<rect x="110" y="165" width="290" height="105" rx="12" fill="#e7f0ff" stroke="#94a3b8" stroke-width="1.5"/>
<circle cx="144" cy="203" r="18" fill="#1d4ed8" opacity="0.9"/>
<text x="144" y="209" text-anchor="middle" font-family="Segoe UI, Arial, sans-serif" font-size="13" font-weight="700" fill="#ffffff">01</text>
<text x="176" y="203" font-family="Segoe UI, Arial, sans-serif" font-size="18" font-weight="700" fill="#0f172a">Diagnostico</text>
<text x="176" y="231" font-family="Segoe UI, Arial, sans-serif" font-size="13" fill="#334155">Componente validado para operacion local</text>
<path d="M 400 217 L 455 217" stroke="#64748b" stroke-width="2" marker-end="url(#arrow)"/>
<rect x="455" y="165" width="290" height="105" rx="12" fill="#e9f7ef" stroke="#94a3b8" stroke-width="1.5"/>
<circle cx="489" cy="203" r="18" fill="#1d4ed8" opacity="0.9"/>
<text x="489" y="209" text-anchor="middle" font-family="Segoe UI, Arial, sans-serif" font-size="13" font-weight="700" fill="#ffffff">02</text>
<text x="521" y="203" font-family="Segoe UI, Arial, sans-serif" font-size="18" font-weight="700" fill="#0f172a">Brecha digital</text>
<text x="521" y="231" font-family="Segoe UI, Arial, sans-serif" font-size="13" fill="#334155">Componente validado para operacion local</text>
<path d="M 745 217 L 800 217" stroke="#64748b" stroke-width="2" marker-end="url(#arrow)"/>
<rect x="800" y="165" width="290" height="105" rx="12" fill="#fff3dc" stroke="#94a3b8" stroke-width="1.5"/>
<circle cx="834" cy="203" r="18" fill="#1d4ed8" opacity="0.9"/>
<text x="834" y="209" text-anchor="middle" font-family="Segoe UI, Arial, sans-serif" font-size="13" font-weight="700" fill="#ffffff">03</text>
<text x="866" y="203" font-family="Segoe UI, Arial, sans-serif" font-size="18" font-weight="700" fill="#0f172a">Usuarios EIB</text>
<text x="866" y="231" font-family="Segoe UI, Arial, sans-serif" font-size="13" fill="#334155">Componente validado para operacion local</text>
<path d="M 945 270 C 945 297 255 297 255 325" stroke="#64748b" stroke-width="2" fill="none" marker-end="url(#arrow)"/>
<rect x="110" y="325" width="290" height="105" rx="12" fill="#f4ecff" stroke="#94a3b8" stroke-width="1.5"/>
<circle cx="144" cy="363" r="18" fill="#1d4ed8" opacity="0.9"/>
<text x="144" y="369" text-anchor="middle" font-family="Segoe UI, Arial, sans-serif" font-size="13" font-weight="700" fill="#ffffff">04</text>
<text x="176" y="363" font-family="Segoe UI, Arial, sans-serif" font-size="18" font-weight="700" fill="#0f172a">Infraestructura</text>
<text x="176" y="391" font-family="Segoe UI, Arial, sans-serif" font-size="13" fill="#334155">Componente validado para operacion local</text>
<path d="M 400 377 L 455 377" stroke="#64748b" stroke-width="2" marker-end="url(#arrow)"/>
<rect x="455" y="325" width="290" height="105" rx="12" fill="#ffecef" stroke="#94a3b8" stroke-width="1.5"/>
<circle cx="489" cy="363" r="18" fill="#1d4ed8" opacity="0.9"/>
<text x="489" y="369" text-anchor="middle" font-family="Segoe UI, Arial, sans-serif" font-size="13" font-weight="700" fill="#ffffff">05</text>
<text x="521" y="363" font-family="Segoe UI, Arial, sans-serif" font-size="18" font-weight="700" fill="#0f172a">Procesos</text>
<text x="521" y="391" font-family="Segoe UI, Arial, sans-serif" font-size="13" fill="#334155">Componente validado para operacion local</text>
<path d="M 745 377 L 800 377" stroke="#64748b" stroke-width="2" marker-end="url(#arrow)"/>
<rect x="800" y="325" width="290" height="105" rx="12" fill="#e8fbff" stroke="#94a3b8" stroke-width="1.5"/>
<circle cx="834" cy="363" r="18" fill="#1d4ed8" opacity="0.9"/>
<text x="834" y="369" text-anchor="middle" font-family="Segoe UI, Arial, sans-serif" font-size="13" font-weight="700" fill="#ffffff">06</text>
<text x="866" y="363" font-family="Segoe UI, Arial, sans-serif" font-size="18" font-weight="700" fill="#0f172a">Riesgos</text>
<text x="866" y="391" font-family="Segoe UI, Arial, sans-serif" font-size="13" fill="#334155">Componente validado para operacion local</text>
<defs><marker id="arrow" markerWidth="10" markerHeight="10" refX="8" refY="3" orient="auto" markerUnits="strokeWidth"><path d="M0,0 L0,6 L9,3 z" fill="#64748b"/></marker></defs>
<rect x="105" y="614" width="990" height="42" rx="10" fill="#f1f5f9" stroke="#cbd5e1"/>
<text x="600" y="640" text-anchor="middle" font-family="Segoe UI, Arial, sans-serif" font-size="14" fill="#334155">YatiqApp - CE01 Gestion de Tecnologias de Informacion</text>
</svg>
