<svg xmlns="http://www.w3.org/2000/svg" width="1100" height="520" viewBox="0 0 1100 520"><rect width="1100" height="520" fill="#f7f9f8"/><text x="45" y="50" font-family="Arial" font-size="30" font-weight="700" fill="#1f2b27">Flujo de documentación de incidencias</text><defs><marker id="a" markerWidth="10" markerHeight="10" refX="8" refY="5" orient="auto"><path d="M1 1 L9 5 L1 9Z" fill="#47786f"/></marker></defs><g font-family="Arial" fill="#25302c"><rect x="70" y="190" width="170" height="85" rx="10" fill="#fff" stroke="#65756f" stroke-width="2"/><text x="115" y="225" font-size="17" font-weight="700">Reporte</text><text x="100" y="250" font-size="13">usuario informa</text><rect x="300" y="190" width="170" height="85" rx="10" fill="#fff" stroke="#65756f" stroke-width="2"/><text x="333" y="225" font-size="17" font-weight="700">Diagnóstico</text><text x="330" y="250" font-size="13">causa e impacto</text><rect x="530" y="190" width="170" height="85" rx="10" fill="#fff" stroke="#65756f" stroke-width="2"/><text x="570" y="225" font-size="17" font-weight="700">Solución</text><text x="565" y="250" font-size="13">acción aplicada</text><rect x="760" y="190" width="170" height="85" rx="10" fill="#fff" stroke="#65756f" stroke-width="2"/><text x="800" y="225" font-size="17" font-weight="700">Cierre</text><text x="792" y="250" font-size="13">evidencia y firma</text></g><g stroke="#47786f" stroke-width="4" fill="none" marker-end="url(#a)"><path d="M240 232H300"/><path d="M470 232H530"/><path d="M700 232H760"/></g><rect x="150" y="365" width="800" height="60" rx="10" fill="#dceee9" stroke="#2f6f66" stroke-width="3"/><text x="260" y="402" font-family="Arial" font-size="18" font-weight="700" fill="#25302c">Registro: problema, causa, impacto, responsable, estado y acción correctiva</text></svg>
