<svg xmlns="http://www.w3.org/2000/svg" width="1100" height="560" viewBox="0 0 1100 560"><rect width="1100" height="560" fill="#f7f9f8"/><text x="45" y="50" font-family="Arial" font-size="30" font-weight="700" fill="#1f2b27">Monitoreo básico SNMP</text><defs><marker id="a" markerWidth="10" markerHeight="10" refX="8" refY="5" orient="auto"><path d="M1 1 L9 5 L1 9Z" fill="#47786f"/></marker></defs><rect x="430" y="220" width="240" height="100" rx="12" fill="#dceee9" stroke="#2f6f66" stroke-width="3"/><text x="485" y="260" font-family="Arial" font-size="20" font-weight="700" fill="#25302c">Estación TIC</text><text x="478" y="288" font-family="Arial" font-size="14" fill="#3f4d48">SNMP solo lectura + logs</text><g font-family="Arial" fill="#25302c"><rect x="75" y="115" width="170" height="70" rx="10" fill="#fff" stroke="#65756f" stroke-width="2"/><text x="125" y="157">Router</text><rect x="75" y="355" width="170" height="70" rx="10" fill="#fff" stroke="#65756f" stroke-width="2"/><text x="125" y="397">Switch</text><rect x="855" y="115" width="170" height="70" rx="10" fill="#fff" stroke="#65756f" stroke-width="2"/><text x="910" y="157">UPS</text><rect x="855" y="355" width="170" height="70" rx="10" fill="#fff" stroke="#65756f" stroke-width="2"/><text x="905" y="397">Servidor</text></g><g stroke="#47786f" stroke-width="4" fill="none" marker-end="url(#a)"><path d="M245 150C340 170 390 220 430 250"/><path d="M245 390C340 365 390 320 430 290"/><path d="M855 150C760 175 710 220 670 250"/><path d="M855 390C760 365 710 320 670 290"/></g><text x="260" y="500" font-family="Arial" font-size="16" fill="#3f4d48">Indicadores: disponibilidad, estado de interfaces, batería UPS, ping servidor y eventos críticos.</text></svg>
