<svg xmlns="http://www.w3.org/2000/svg" width="1100" height="560" viewBox="0 0 1100 560"><rect width="1100" height="560" fill="#f7f9f8"/><text x="45" y="50" font-family="Arial" font-size="30" font-weight="700" fill="#1f2b27">Routing estático implementado</text><defs><marker id="a" markerWidth="10" markerHeight="10" refX="8" refY="5" orient="auto"><path d="M1 1 L9 5 L1 9Z" fill="#47786f"/></marker></defs><g font-family="Arial" fill="#25302c"><rect x="440" y="130" width="220" height="100" rx="12" fill="#dceee9" stroke="#2f6f66" stroke-width="3"/><text x="500" y="168" font-size="19" font-weight="700">Router</text><text x="475" y="195" font-size="14">Gateway inter-VLAN</text><rect x="450" y="360" width="200" height="80" rx="12" fill="#e8f0f7" stroke="#6c8eac" stroke-width="3"/><text x="510" y="405" font-size="18" font-weight="700">Internet</text><rect x="70" y="150" width="180" height="65" rx="10" fill="#fff" stroke="#65756f" stroke-width="2"/><text x="115" y="190">VLAN 10</text><rect x="70" y="250" width="180" height="65" rx="10" fill="#fff" stroke="#65756f" stroke-width="2"/><text x="115" y="290">VLAN 20</text><rect x="70" y="350" width="180" height="65" rx="10" fill="#fff" stroke="#65756f" stroke-width="2"/><text x="115" y="390">VLAN 30</text><rect x="850" y="170" width="180" height="65" rx="10" fill="#fff" stroke="#65756f" stroke-width="2"/><text x="895" y="210">VLAN 40</text><rect x="850" y="300" width="180" height="65" rx="10" fill="#fff" stroke="#65756f" stroke-width="2"/><text x="895" y="340">VLAN 50</text></g><g stroke="#47786f" stroke-width="4" fill="none" marker-end="url(#a)"><path d="M250 182H440"/><path d="M250 282C320 250 370 210 440 190"/><path d="M250 382C340 330 380 235 440 215"/><path d="M660 190H850"/><path d="M660 215C745 260 780 315 850 333"/><path d="M550 230V360"/></g><text x="375" y="505" font-family="Arial" font-size="16" fill="#3f4d48">Ruta por defecto 0.0.0.0/0 hacia WAN del proveedor. Sin OSPF/BGP por simplicidad.</text></svg>
