<svg xmlns="http://www.w3.org/2000/svg" width="1000" height="430" viewBox="0 0 1000 430"><rect width="1000" height="430" fill="#f8fafc"/><text x="40" y="48" font-family="Arial" font-size="28" font-weight="700" fill="#0f172a">Segmentacion VLAN para YatiqApp</text><g font-family="Arial" font-size="16" fill="#0f172a"><rect x="70" y="110" width="160" height="90" rx="8" fill="#dbeafe" stroke="#1d4ed8"/><text x="100" y="150">VLAN 10</text><text x="88" y="174">Administracion</text><rect x="250" y="110" width="160" height="90" rx="8" fill="#dcfce7" stroke="#15803d"/><text x="286" y="150">VLAN 20</text><text x="294" y="174">Docentes</text><rect x="430" y="110" width="160" height="90" rx="8" fill="#fef3c7" stroke="#b45309"/><text x="466" y="150">VLAN 30</text><text x="456" y="174">Estudiantes</text><rect x="610" y="110" width="160" height="90" rx="8" fill="#ede9fe" stroke="#6d28d9"/><text x="646" y="150">VLAN 40</text><text x="628" y="174">Repositorio</text><rect x="790" y="110" width="160" height="90" rx="8" fill="#fee2e2" stroke="#b91c1c"/><text x="826" y="150">VLAN 50</text><text x="834" y="174">Invitados</text><rect x="370" y="280" width="260" height="70" rx="8" fill="#e2e8f0" stroke="#475569"/><text x="430" y="322">Firewall / ACL</text></g><g stroke="#475569" stroke-width="2" fill="none"><path d="M150 200L500 280"/><path d="M330 200L500 280"/><path d="M510 200L500 280"/><path d="M690 200L500 280"/><path d="M870 200L500 280"/></g></svg>
