<svg xmlns="http://www.w3.org/2000/svg" width="1000" height="420" viewBox="0 0 1000 420"><rect width="1000" height="420" fill="#f7faf9"/><text x="40" y="48" font-family="Arial" font-size="28" font-weight="700" fill="#17342f">Red offline para YatiqApp - I.E. Agropecuario Sorapa</text><g font-family="Arial" font-size="16" fill="#17342f"><rect x="70" y="140" width="170" height="80" rx="8" fill="#dbeafe" stroke="#2563eb"/><text x="105" y="185">Router</text><text x="95" y="205">Internet eventual</text><rect x="310" y="140" width="170" height="80" rx="8" fill="#dcfce7" stroke="#16a34a"/><text x="352" y="185">Switch LAN</text><rect x="550" y="90" width="190" height="80" rx="8" fill="#fef3c7" stroke="#d97706"/><text x="585" y="135">Servidor local</text><text x="575" y="155">Repositorio</text><rect x="550" y="225" width="190" height="80" rx="8" fill="#ede9fe" stroke="#7c3aed"/><text x="590" y="270">Access Points</text><rect x="800" y="225" width="140" height="80" rx="8" fill="#fee2e2" stroke="#dc2626"/><text x="823" y="264">Celulares</text><text x="818" y="284">Android offline</text></g><g stroke="#334155" stroke-width="3" fill="none"><path d="M240 180H310"/><path d="M480 180H540"/><path d="M480 180C520 180 520 265 550 265"/><path d="M740 265H800"/></g><text x="280" y="360" font-family="Arial" font-size="18" fill="#334155">La IA se ejecuta en el celular. El servidor solo distribuye APK, contenidos, RAG, modelos y backups.</text></svg>
