<svg xmlns="http://www.w3.org/2000/svg" width="1100" height="540" viewBox="0 0 1100 540"><rect width="1100" height="540" fill="#f7f9f8"/><text x="45" y="50" font-family="Arial" font-size="30" font-weight="700" fill="#1f2b27">Plan de continuidad</text><defs><marker id="a" markerWidth="10" markerHeight="10" refX="8" refY="5" orient="auto"><path d="M1 1 L9 5 L1 9Z" fill="#47786f"/></marker></defs><g font-family="Arial" fill="#25302c"><rect x="70" y="210" width="160" height="80" rx="10" fill="#fff" stroke="#65756f" stroke-width="2"/><text x="115" y="245">Incidente</text><rect x="290" y="210" width="160" height="80" rx="10" fill="#fff" stroke="#65756f" stroke-width="2"/><text x="318" y="245">Contención</text><rect x="510" y="210" width="160" height="80" rx="10" fill="#fff" stroke="#65756f" stroke-width="2"/><text x="543" y="245">Restaurar</text><rect x="730" y="210" width="160" height="80" rx="10" fill="#fff" stroke="#65756f" stroke-width="2"/><text x="768" y="245">Validar</text><rect x="360" y="380" width="390" height="65" rx="10" fill="#dceee9" stroke="#2f6f66" stroke-width="3"/><text x="438" y="420" font-size="18" font-weight="700">Registrar lecciones aprendidas</text></g><g stroke="#47786f" stroke-width="4" fill="none" marker-end="url(#a)"><path d="M230 250H290"/><path d="M450 250H510"/><path d="M670 250H730"/><path d="M810 290C780 350 660 370 590 380"/></g></svg>
