<svg xmlns="http://www.w3.org/2000/svg" width="1050" height="540" viewBox="0 0 1050 540"><rect width="1050" height="540" fill="#f7f9f8"/><text x="45" y="50" font-family="Arial" font-size="30" font-weight="700" fill="#1f2b27">Ética ACM aplicada a Sorapa</text><g font-family="Arial" fill="#25302c"><rect x="390" y="115" width="270" height="90" rx="12" fill="#dceee9" stroke="#2f6f66" stroke-width="3"/><text x="455" y="153" font-size="20" font-weight="700">Responsable TIC</text><text x="425" y="180" font-size="14">actúa con ética profesional</text><rect x="80" y="310" width="180" height="75" rx="10" fill="#fff" stroke="#65756f" stroke-width="2"/><text x="118" y="352">Privacidad</text><rect x="300" y="310" width="180" height="75" rx="10" fill="#fff" stroke="#65756f" stroke-width="2"/><text x="330" y="352">Confidencialidad</text><rect x="520" y="310" width="180" height="75" rx="10" fill="#fff" stroke="#65756f" stroke-width="2"/><text x="570" y="352">Integridad</text><rect x="740" y="310" width="210" height="75" rx="10" fill="#fff" stroke="#65756f" stroke-width="2"/><text x="785" y="352">Impacto social</text></g><g stroke="#47786f" stroke-width="3" fill="none"><path d="M525 205C500 260 170 260 170 310"/><path d="M525 205C500 265 390 265 390 310"/><path d="M525 205C550 265 610 265 610 310"/><path d="M525 205C590 260 845 260 845 310"/></g></svg>
