<svg xmlns="http://www.w3.org/2000/svg" width="1000" height="520" viewBox="0 0 1000 520"><rect width="1000" height="520" fill="#f7f9f8"/><text x="45" y="50" font-family="Arial" font-size="30" font-weight="700" fill="#1f2b27">Gestión de Identidades (IAM)</text><defs><marker id="a" markerWidth="10" markerHeight="10" refX="8" refY="5" orient="auto"><path d="M1 1 L9 5 L1 9Z" fill="#47786f"/></marker></defs><rect x="390" y="120" width="220" height="90" rx="12" fill="#dceee9" stroke="#2f6f66" stroke-width="3"/><text x="440" y="155" font-family="Arial" font-size="20" font-weight="700" fill="#25302c">Servidor</text><text x="420" y="182" font-family="Arial" font-size="14" fill="#3f4d48">usuarios y permisos</text><g font-family="Arial" fill="#25302c"><rect x="60" y="320" width="135" height="65" rx="10" fill="#fff" stroke="#65756f" stroke-width="2"/><text x="95" y="358">Director</text><rect x="230" y="320" width="135" height="65" rx="10" fill="#fff" stroke="#65756f" stroke-width="2"/><text x="275" y="358">Secretaria</text><rect x="400" y="320" width="135" height="65" rx="10" fill="#fff" stroke="#65756f" stroke-width="2"/><text x="438" y="358">TIC</text><rect x="570" y="320" width="135" height="65" rx="10" fill="#fff" stroke="#65756f" stroke-width="2"/><text x="612" y="358">Docentes</text><rect x="740" y="320" width="160" height="65" rx="10" fill="#fff" stroke="#65756f" stroke-width="2"/><text x="790" y="358">Estudiantes</text></g><g stroke="#47786f" stroke-width="3" fill="none" marker-end="url(#a)"><path d="M500 210C470 270 130 260 128 320"/><path d="M500 210C470 270 298 270 298 320"/><path d="M500 210C490 270 468 270 468 320"/><path d="M500 210C535 270 638 270 638 320"/><path d="M500 210C590 275 820 260 820 320"/></g></svg>
